<svg width="24" height="24" viewBox="0 0 24 24" fill="none" xmlns="http://www.w3.org/2000/svg">
<rect width="24" height="24" fill="#1E1E1E"/>
<rect width="393" height="852" transform="translate(-45 -465)" fill="#121212"/>
<rect x="-15" y="-14" width="333" height="52" rx="15" fill="#333333"/>
<rect x="-15" y="-14" width="333" height="52" rx="15" fill="#333333"/>
<mask id="mask0_0_1" style="mask-type:luminance" maskUnits="userSpaceOnUse" x="0" y="0" width="24" height="24">
<path d="M20.25 14.2C20.8335 14.2 21.3931 13.9682 21.8056 13.5556C22.2182 13.1431 22.45 12.5835 22.45 12C22.45 11.4165 22.2182 10.8569 21.8056 10.4444C21.3931 10.0318 20.8335 9.8 20.25 9.8C19.6665 9.8 19.1069 10.0318 18.6944 10.4444C18.2818 10.8569 18.05 11.4165 18.05 12C18.05 12.5835 18.2818 13.1431 18.6944 13.5556C19.1069 13.9682 19.6665 14.2 20.25 14.2ZM3.2 5.4C3.78348 5.4 4.34306 5.16822 4.75564 4.75564C5.16822 4.34306 5.4 3.78348 5.4 3.2C5.4 2.61652 5.16822 2.05694 4.75564 1.64437C4.34306 1.23178 3.78348 1 3.2 1C2.61652 1 2.05694 1.23178 1.64437 1.64437C1.23178 2.05694 1 2.61652 1 3.2C1 3.78348 1.23178 4.34306 1.64437 4.75564C2.05694 5.16822 2.61652 5.4 3.2 5.4ZM3.2 23C3.78348 23 4.34306 22.7682 4.75564 22.3556C5.16822 21.9431 5.4 21.3835 5.4 20.8C5.4 20.2165 5.16822 19.6569 4.75564 19.2444C4.34306 18.8318 3.78348 18.6 3.2 18.6C2.61652 18.6 2.05694 18.8318 1.64437 19.2444C1.23178 19.6569 1 20.2165 1 20.8C1 21.3835 1.23178 21.9431 1.64437 22.3556C2.05694 22.7682 2.61652 23 3.2 23Z" fill="#555555" stroke="white" stroke-width="2" stroke-linejoin="round"/>
<path d="M3.20001 5.4V18.6V12.0044H18.05" stroke="white" stroke-width="2" stroke-linecap="round" stroke-linejoin="round"/>
</mask>
<g mask="url(#mask0_0_1)">
<path d="M-1.75 -1.2H24.65V25.2H-1.75V-1.2Z" fill="#E0E0E0" fill-opacity="0.5"/>
</g>
</svg>
